<?xml version="1.0" encoding="UTF-8" standalone="no" ?>
<!DOCTYPE svg PUBLIC "-//W3C//DTD SVG 1.1//EN" "http://www.w3.org/Graphics/SVG/1.1/DTD/svg11.dtd">
<svg xmlns="http://www.w3.org/2000/svg" xmlns:xlink="http://www.w3.org/1999/xlink" version="1.1" width="50" height="50" viewBox="0 0 50 50" xml:space="preserve">
<desc>Created with Fabric.js 5.3.0</desc>
<defs>
</defs>
<g transform="matrix(0.5806162986 0 0 0.5806162986 25 25)" id="1Md7wctkSj4cQ3ws5m-WP"  >
<g style=""   >
		<g transform="matrix(1 0 0 1 0 3.95)" id="zqCVmL5cln21tlGBjZ7xL"  >
<path style="stroke: none; stroke-width: 1; stroke-dasharray: none; stroke-linecap: butt; stroke-dashoffset: 0; stroke-linejoin: miter; stroke-miterlimit: 4; fill: rgb(179,181,179); fill-rule: nonzero; opacity: 1;"  transform=" translate(-40, -43.95)" d="M 70.1 8.6 L 66.19999999999999 8.6 L 66.19999999999999 10.6 C 66.19999999999999 13.899999999999999 63.499999999999986 16.6 60.19999999999999 16.6 C 56.89999999999999 16.6 54.19999999999999 13.900000000000002 54.19999999999999 10.600000000000001 L 54.19999999999999 8.600000000000001 L 46 8.600000000000001 L 46 10.600000000000001 C 46 13.900000000000002 43.3 16.6 40 16.6 C 36.7 16.6 34 13.900000000000002 34 10.600000000000001 L 34 8.600000000000001 L 25.7 8.600000000000001 L 25.7 10.600000000000001 C 25.7 13.900000000000002 23 16.6 19.7 16.6 C 16.4 16.6 13.7 13.900000000000002 13.7 10.600000000000001 L 13.7 8.600000000000001 L 9.9 8.600000000000001 C 4.4 8.6 0 13.1 0 18.5 L 0 69.4 C 0 74.9 4.4 79.30000000000001 9.9 79.30000000000001 L 70.10000000000001 79.30000000000001 C 75.60000000000001 79.30000000000001 80.00000000000001 74.9 80.00000000000001 69.4 L 80.00000000000001 18.5 C 80 13.1 75.6 8.6 70.1 8.6 z" stroke-linecap="round" />
</g>
		<g transform="matrix(1 0 0 1 0 8.9)" id="3cf4opSULJkOCRoYhlt08"  >
<path style="stroke: none; stroke-width: 1; stroke-dasharray: none; stroke-linecap: butt; stroke-dashoffset: 0; stroke-linejoin: miter; stroke-miterlimit: 4; fill: rgb(255,255,255); fill-rule: nonzero; opacity: 1;"  transform=" translate(-40, -48.9)" d="M 70.1 24.1 L 9.9 24.1 C 7.5 24.1 5.6000000000000005 26 5.6000000000000005 28.400000000000002 L 5.6000000000000005 69.4 C 5.6000000000000005 71.80000000000001 7.5 73.7 9.9 73.7 L 70.10000000000001 73.7 C 72.50000000000001 73.7 74.4 71.8 74.4 69.4 L 74.4 69.4 L 74.4 28.400000000000006 C 74.4 26 72.5 24.1 70.1 24.1 z" stroke-linecap="round" />
</g>
		<g transform="matrix(1 0 0 1 0 8.9)" id="QQA56cjlmCqn8gsptDKxZ"  >
<path style="stroke: none; stroke-width: 1; stroke-dasharray: none; stroke-linecap: butt; stroke-dashoffset: 0; stroke-linejoin: miter; stroke-miterlimit: 4; fill: rgb(179,181,179); fill-rule: nonzero; opacity: 1;"  transform=" translate(-40, -48.9)" d="M 22.1 61.5 L 22.1 65.6 C 22.1 67.5 20.5 69.1 18.6 69.1 L 14.500000000000002 69.1 C 12.600000000000001 69.1 11.000000000000002 67.5 11.000000000000002 65.6 L 11.000000000000002 61.49999999999999 C 11.000000000000002 59.599999999999994 12.600000000000001 57.99999999999999 14.500000000000002 57.99999999999999 L 18.6 57.99999999999999 C 20.5 58 22.1 59.6 22.1 61.5 z M 18.6 43.4 L 14.500000000000002 43.4 C 12.600000000000001 43.4 11.000000000000002 45 11.000000000000002 46.9 L 11.000000000000002 51 C 11.000000000000002 52.9 12.600000000000001 54.5 14.500000000000002 54.5 L 18.6 54.5 C 20.5 54.5 22.1 52.9 22.1 51 L 22.1 46.9 C 22.1 44.9 20.5 43.4 18.6 43.4 z M 34.2 43.4 L 30.1 43.4 C 28.200000000000003 43.4 26.6 45 26.6 46.9 L 26.6 51 C 26.6 52.9 28.200000000000003 54.5 30.1 54.5 L 34.2 54.5 C 36.1 54.5 37.7 52.9 37.7 51 L 37.7 46.9 C 37.7 44.9 36.1 43.4 34.2 43.4 z M 34.2 58 L 30.1 58 C 28.200000000000003 58 26.6 59.6 26.6 61.5 L 26.6 65.6 C 26.6 67.5 28.200000000000003 69.1 30.1 69.1 L 34.2 69.1 C 36.1 69.1 37.7 67.5 37.7 65.6 L 37.7 61.49999999999999 C 37.7 59.6 36.1 58 34.2 58 z M 34.2 28.7 L 30.1 28.7 C 28.200000000000003 28.7 26.6 30.3 26.6 32.2 L 26.6 36.300000000000004 C 26.6 38.2 28.200000000000003 39.800000000000004 30.1 39.800000000000004 L 34.2 39.800000000000004 C 36.1 39.800000000000004 37.7 38.2 37.7 36.300000000000004 L 37.7 32.2 C 37.7 30.3 36.1 28.7 34.2 28.7 z M 65.5 43.4 L 61.4 43.4 C 59.5 43.4 57.9 45 57.9 46.9 L 57.9 51 C 57.9 52.9 59.5 54.5 61.4 54.5 L 65.5 54.5 C 67.4 54.5 69 52.9 69 51 L 69 46.9 C 68.9 44.9 67.4 43.4 65.5 43.4 z M 65.5 28.7 L 61.4 28.7 C 59.5 28.7 57.9 30.3 57.9 32.2 L 57.9 36.300000000000004 C 57.9 38.2 59.5 39.800000000000004 61.4 39.800000000000004 L 65.5 39.800000000000004 C 67.4 39.800000000000004 69 38.2 69 36.300000000000004 L 69 32.2 C 68.9 30.3 67.4 28.7 65.5 28.7 z M 49.8 58 L 45.699999999999996 58 C 43.8 58 42.199999999999996 59.6 42.199999999999996 61.5 L 42.199999999999996 65.6 C 42.199999999999996 67.5 43.8 69.1 45.699999999999996 69.1 L 49.8 69.1 C 51.699999999999996 69.1 53.3 67.5 53.3 65.6 L 53.3 61.49999999999999 C 53.3 59.6 51.8 58 49.8 58 z M 49.8 43.4 L 45.699999999999996 43.4 C 43.8 43.4 42.199999999999996 45 42.199999999999996 46.9 L 42.199999999999996 51 C 42.199999999999996 52.9 43.8 54.5 45.699999999999996 54.5 L 49.8 54.5 C 51.699999999999996 54.5 53.3 52.9 53.3 51 L 53.3 46.9 C 53.3 44.9 51.8 43.4 49.8 43.4 z M 49.8 28.7 L 45.699999999999996 28.7 C 43.8 28.7 42.199999999999996 30.3 42.199999999999996 32.2 L 42.199999999999996 36.300000000000004 C 42.199999999999996 38.2 43.8 39.800000000000004 45.699999999999996 39.800000000000004 L 49.8 39.800000000000004 C 51.699999999999996 39.800000000000004 53.3 38.2 53.3 36.300000000000004 L 53.3 32.2 C 53.3 30.3 51.8 28.7 49.8 28.7 z M 65.5 58 L 61.4 58 C 59.5 58 57.9 59.6 57.9 61.5 L 57.9 65.6 C 57.9 67.5 59.5 69.1 61.4 69.1 L 65.5 69.1 C 67.4 69.1 69 67.5 69 65.6 L 69 61.49999999999999 C 68.9 59.6 67.4 58 65.5 58 z" stroke-linecap="round" />
</g>
		<g transform="matrix(1 0 0 1 0.05 -32.6)" id="YG9cKXd3bJY5gPJZOX7Ki"  >
<path style="stroke: none; stroke-width: 1; stroke-dasharray: none; stroke-linecap: butt; stroke-dashoffset: 0; stroke-linejoin: miter; stroke-miterlimit: 4; fill: rgb(179,181,179); fill-rule: nonzero; opacity: 1;"  transform=" translate(-40.05, -7.4)" d="M 56.8 10.6 L 56.8 4.2 C 56.8 2.3000000000000003 58.3 0.7000000000000002 60.3 0.7000000000000002 C 62.3 0.7000000000000002 63.8 2.2 63.8 4.2 L 63.8 10.600000000000001 C 63.8 12.500000000000002 62.3 14.100000000000001 60.3 14.100000000000001 C 58.3 14.100000000000001 56.8 12.5 56.8 10.6 z M 40 14.1 C 41.9 14.1 43.5 12.6 43.5 10.6 L 43.5 4.2 C 43.5 2.3000000000000003 42 0.7000000000000002 40 0.7000000000000002 C 38 0.7000000000000002 36.5 2.2 36.5 4.2 L 36.5 10.600000000000001 C 36.5 12.5 38.1 14.1 40 14.1 z M 19.8 14.1 C 21.7 14.1 23.3 12.6 23.3 10.6 L 23.3 4.2 C 23.3 2.3000000000000003 21.8 0.7000000000000002 19.8 0.7000000000000002 C 17.8 0.7000000000000002 16.3 2.2 16.3 4.2 L 16.3 10.600000000000001 C 16.3 12.5 17.8 14.1 19.8 14.1 z" stroke-linecap="round" />
</g>
</g>
</g>
</svg>