<?xml version="1.0" encoding="UTF-8" standalone="no" ?>
<!DOCTYPE svg PUBLIC "-//W3C//DTD SVG 1.1//EN" "http://www.w3.org/Graphics/SVG/1.1/DTD/svg11.dtd">
<svg xmlns="http://www.w3.org/2000/svg" xmlns:xlink="http://www.w3.org/1999/xlink" version="1.1" width="50" height="50" viewBox="0 0 50 50" xml:space="preserve">
<desc>Created with Fabric.js 5.3.0</desc>
<defs>
</defs>
<g transform="matrix(0.5009589786 0 0 0.5009589786 25 13.6442141623)" id="LVJVyz1sqq_flSWb0Cb6F"  >
<g style=""   >
		<g transform="matrix(1 0 0 1 0 3.45)" id="SLW47LjKCAw1pxd1MRhmI"  >
<path style="stroke: none; stroke-width: 1; stroke-dasharray: none; stroke-linecap: butt; stroke-dashoffset: 0; stroke-linejoin: miter; stroke-miterlimit: 4; fill: rgb(179,181,179); fill-rule: nonzero; opacity: 1;"  transform=" translate(-40, -43.5)" d="M 24.3 34.9 C 24.400000000000002 33.8 25 26.099999999999998 17.1 26.099999999999998 C 8.700000000000001 26.099999999999998 9.900000000000002 35 9.900000000000002 35 C 9.4 35 9 35.4 9 36.8 C 9.1 38.5 10.3 39.5 10.7 39.8 C 10.899999999999999 40.199999999999996 11.399999999999999 41.4 12.299999999999999 42.699999999999996 L 12.299999999999999 45.9 C 12.1 46.1 9.299999999999999 48.6 9.299999999999999 48.6 L 3.1999999999999993 51.5 C 1.9999999999999993 52 1.1999999999999993 53.1 0.8999999999999995 54.4 L 0 61 C 0 61 12.4 61 12.4 60.9 L 13 57.8 C 13.5 55.4 15.1 53.3 17.3 52.3 L 25.200000000000003 48.699999999999996 C 25.200000000000003 48.699999999999996 22.000000000000004 45.9 22.000000000000004 45.9 L 22.000000000000004 42.699999999999996 C 22.900000000000002 41.4 23.400000000000002 40.099999999999994 23.600000000000005 39.699999999999996 C 24.000000000000004 39.4 25.200000000000006 38.49999999999999 25.300000000000004 36.699999999999996 C 25.3 35.2 24.8 34.9 24.3 34.9 z M 54.7 36.8 C 54.800000000000004 38.5 56 39.5 56.400000000000006 39.8 C 56.60000000000001 40.199999999999996 57.10000000000001 41.4 58.00000000000001 42.8 L 58.00000000000001 46 C 58.00000000000001 46 54.800000000000004 48.8 54.800000000000004 48.8 L 62.7 52.4 C 65 53.4 66.60000000000001 55.5 67 57.9 L 67.6 61 C 67.6 61 80 61 80 61 L 79 54.3 C 78.7 53 77.9 52 76.7 51.4 L 70.60000000000001 48.5 C 70.60000000000001 48.5 67.80000000000001 46 67.60000000000001 45.8 L 67.60000000000001 42.599999999999994 C 68.50000000000001 41.3 69.00000000000001 40.099999999999994 69.2 39.699999999999996 C 69.60000000000001 39.4 70.8 38.4 70.9 36.699999999999996 C 71 35.3 70.5 34.99999999999999 70.10000000000001 34.9 C 70.10000000000001 34.9 71.30000000000001 26 62.900000000000006 26 C 55.00000000000001 26 55.60000000000001 33.7 55.7 34.8 C 55.2 34.9 54.7 35.2 54.7 36.8 z" stroke-linecap="round" />
</g>
		<g transform="matrix(1 0 0 1 -0.05 0)" id="ZAYDL72iiyqdGpAEjXPtl"  >
<path style="stroke: none; stroke-width: 1; stroke-dasharray: none; stroke-linecap: butt; stroke-dashoffset: 0; stroke-linejoin: miter; stroke-miterlimit: 4; fill: rgb(179,181,179); fill-rule: nonzero; opacity: 1;"  transform=" translate(-39.95, -40.05)" d="M 62.2 53.6 L 52.2 49 C 52.2 49 47.400000000000006 44.6 47.400000000000006 44.6 L 47.300000000000004 39.5 C 48.7 37.4 49.6 35.5 49.800000000000004 34.9 C 50.400000000000006 34.5 52.400000000000006 32.9 52.50000000000001 30.299999999999997 C 52.60000000000001 27.9 51.800000000000004 27.299999999999997 51.10000000000001 27.299999999999997 C 51.30000000000001 25.599999999999998 52.10000000000001 13.399999999999997 39.70000000000001 13.399999999999997 C 26.30000000000001 13.399999999999997 28.20000000000001 27.499999999999996 28.20000000000001 27.499999999999996 L 28.20000000000001 27.499999999999996 C 27.50000000000001 27.599999999999998 26.80000000000001 28.099999999999998 26.90000000000001 30.299999999999997 C 27.00000000000001 33 29.00000000000001 34.5 29.60000000000001 34.9 C 29.90000000000001 35.5 30.70000000000001 37.5 32.10000000000001 39.5 L 32.10000000000001 44.6 C 32.10000000000001 44.6 27.40000000000001 49 27.40000000000001 49 L 17.80000000000001 53.6 C 15.900000000000011 54.5 14.600000000000012 56.1 14.200000000000012 58.1 L 12.500000000000012 66.7 L 67.4 66.7 L 65.7 58.1 C 65.4 56.1 64 54.4 62.2 53.6 z" stroke-linecap="round" />
</g>
</g>
</g>
<g transform="matrix(1.738906639 0 0 1.738906639 25 37.8752997447)" id="KIlv-GwcW6gAs1ZP9_qTJ"  >
<path style="stroke: none; stroke-width: 1; stroke-dasharray: none; stroke-linecap: butt; stroke-dashoffset: 0; stroke-linejoin: miter; stroke-miterlimit: 4; fill: rgb(179,181,179); fill-rule: nonzero; opacity: 1;"  transform=" translate(0, 0)" d="M -10.59591 -3.4944 C -10.94364 -3.4944 -11.22626 -3.7770200000000003 -11.22626 -4.1244700000000005 L -11.22626 -5.613060000000001 L -3.44742 -5.613060000000001 C -3.44742 -3.709110000000001 -1.9041100000000002 -2.165800000000001 -0.00016000000000016001 -2.165800000000001 C 1.9037899999999999 -2.165800000000001 3.4471 -3.709110000000001 3.4471 -5.613060000000001 L 11.22627 -5.613060000000001 L 11.22627 -4.124760000000001 C 11.22627 -3.777030000000001 10.94337 -3.494410000000001 10.59592 -3.494410000000001 L 7.42089 -3.494410000000001 C 7.18542 -3.494410000000001 6.97409 -3.3470700000000013 6.89523 -3.128160000000001 C 6.8180499999999995 -2.913460000000001 6.72964 -2.7004500000000013 6.6331 -2.495010000000001 C 6.53403 -2.284240000000001 6.57921 -2.030530000000001 6.74564 -1.864100000000001 L 8.99086 0.38111999999999924 C 9.11014 0.5001199999999992 9.17553 0.6584099999999993 9.17553 0.8267999999999993 C 9.17553 0.9951999999999993 9.10986 1.1534799999999994 8.99086 1.2724799999999994 L 6.88568 3.377659999999999 C 6.76668 3.4966599999999994 6.60839 3.5623299999999993 6.4399999999999995 3.5623299999999993 C 6.271599999999999 3.5623299999999993 6.11332 3.4966599999999994 5.994319999999999 3.377659999999999 L 3.749099999999999 1.132439999999999 C 3.586319999999999 0.969659999999999 3.325029999999999 0.922509999999999 3.118189999999999 1.019899999999999 C 2.912189999999999 1.116729999999999 2.699179999999999 1.2048499999999989 2.4847599999999987 1.282029999999999 C 2.2658499999999986 1.3608899999999988 2.118789999999999 1.5722199999999988 2.118789999999999 1.807689999999999 L 2.118789999999999 4.982719999999999 C 2.118789999999999 5.330449999999999 1.835889999999999 5.613069999999999 1.4884399999999989 5.613069999999999 L -1.4887200000000012 5.613069999999999 C -1.8361700000000012 5.613069999999999 -2.118790000000001 5.330169999999999 -2.118790000000001 4.982719999999999 L -2.118790000000001 1.8076899999999987 C -2.118790000000001 1.5722199999999986 -2.266130000000001 1.3608899999999986 -2.485040000000001 1.2820299999999987 C -2.699180000000001 1.2051299999999987 -2.912470000000001 1.1167299999999987 -3.118190000000001 1.0198999999999987 C -3.3253100000000013 0.9225099999999987 -3.586320000000001 0.9696599999999987 -3.749100000000001 1.1324399999999988 L -5.994320000000002 3.3776599999999988 C -6.113320000000002 3.4966599999999985 -6.271610000000002 3.562329999999999 -6.440000000000002 3.562329999999999 C -6.608400000000002 3.562329999999999 -6.766680000000002 3.496659999999999 -6.8856800000000025 3.3776599999999988 L -8.990860000000001 1.272479999999999 C -9.109860000000001 1.153479999999999 -9.175530000000002 0.9951899999999989 -9.175530000000002 0.8267999999999989 C -9.175530000000002 0.6583999999999989 -9.109860000000001 0.5001199999999988 -8.990860000000001 0.38111999999999885 L -6.745640000000002 -1.8641000000000014 C -6.579210000000002 -2.0305300000000015 -6.534030000000001 -2.2842400000000014 -6.6331000000000016 -2.4950100000000015 C -6.729920000000002 -2.7004500000000013 -6.818050000000001 -2.9134600000000015 -6.895510000000002 -3.1281600000000016 C -6.974090000000001 -3.3473500000000014 -7.1854200000000015 -3.4944100000000016 -7.420890000000002 -3.4944100000000016 L -10.595920000000001 -3.4944100000000016 z" stroke-linecap="round" />
</g>
</svg>